<svg width="28" height="28" viewBox="0 0 28 28" fill="none" xmlns="http://www.w3.org/2000/svg">
<path d="M23.625 13.1249H6.16919L12.8533 6.75841C13.2033 6.42503 13.2169 5.87116 12.8835 5.52116C12.5506 5.1716 11.9967 5.1576 11.6463 5.49097L4.01275 12.7622C3.68244 13.093 3.5 13.5322 3.5 13.9999C3.5 14.4672 3.68244 14.9068 4.02806 15.252L11.6467 22.5084C11.816 22.6698 12.033 22.7499 12.25 22.7499C12.481 22.7499 12.712 22.6589 12.8839 22.4782C13.2173 22.1282 13.2037 21.5748 12.8537 21.2414L6.14162 14.8749H23.625C24.108 14.8749 24.5 14.4829 24.5 13.9999C24.5 13.5169 24.108 13.1249 23.625 13.1249Z" fill="#505050"/>
</svg>
