<svg width="26" height="24" viewBox="0 0 26 24" fill="none" xmlns="http://www.w3.org/2000/svg">
<path d="M8.29404 18.2554C6.79489 18.2554 5.57965 19.3717 5.57965 20.7486C5.57965 22.1255 6.79495 23.2417 8.29404 23.2417C9.7932 23.2417 11.0084 22.1254 11.0084 20.7486C11.0085 19.3717 9.7932 18.2554 8.29404 18.2554ZM8.29404 22.1337C7.4612 22.1337 6.78606 21.5136 6.78606 20.7486C6.78606 19.9836 7.4612 19.3636 8.29404 19.3636C9.12689 19.3636 9.80203 19.9836 9.80203 20.7486C9.80209 21.5136 9.12689 22.1337 8.29404 22.1337Z" fill="#19B0FF"/>
<path d="M19.7549 18.2554C18.2558 18.2554 17.0405 19.3717 17.0405 20.7486C17.0405 22.1255 18.2558 23.2417 19.7549 23.2417C21.254 23.2417 22.4693 22.1254 22.4693 20.7486C22.4693 19.3717 21.2541 18.2554 19.7549 18.2554ZM19.7549 22.1337C18.9221 22.1337 18.2469 21.5136 18.2469 20.7486C18.2469 19.9836 18.9221 19.3636 19.7549 19.3636C20.5878 19.3636 21.2629 19.9836 21.2629 20.7486C21.263 21.5136 20.5878 22.1337 19.7549 22.1337Z" fill="#19B0FF"/>
<path d="M25.8774 3.71207C25.7518 3.58604 25.5799 3.50714 25.3948 3.49044L5.7606 3.24112L5.21773 1.71751C4.83528 0.698999 3.79686 0.0113999 2.62393 0H0.603204C0.270054 0 0 0.248041 0 0.554035C0 0.86003 0.270054 1.10807 0.603204 1.10807H2.62393C3.27978 1.12138 3.8573 1.50818 4.07164 2.07764L7.90198 12.6874L7.60041 13.3245C7.26403 14.1212 7.36505 15.018 7.87185 15.7346C8.3738 16.4384 9.21825 16.8727 10.1339 16.898H21.8662C22.1993 16.898 22.4694 16.65 22.4694 16.344C22.4694 16.038 22.1993 15.79 21.8662 15.79H10.1338C9.61675 15.7781 9.14078 15.5283 8.86709 15.1251C8.59645 14.7269 8.54086 14.2364 8.7163 13.7954L8.9576 13.2968L21.655 12.0779C23.0497 11.9368 24.197 11.0051 24.5203 9.75094L25.968 4.18291C26.0332 4.02257 25.9986 3.84224 25.8774 3.71207ZM23.344 9.50168C23.1482 10.309 22.4019 10.9045 21.5042 10.9699L8.9576 12.161L6.1527 4.34919L24.6409 4.59851L23.344 9.50168Z" fill="#19B0FF"/>
</svg>
